<?xml version="1.0" encoding="UTF-8"?>
<svg id="Layer_1" data-name="Layer 1" xmlns="http://www.w3.org/2000/svg" viewBox="0 0 200 125.81">
  <path d="M132.93,112.86c-.33-.68-.7-1.01-1.11-1.01-.33,0-.7.44-1.11,1.33-.41.89-1.07,1.9-1.98,3.05-.91,1.14-2.2,2.3-3.89,3.49-1.69,1.19-3.93,2.03-6.73,2.54l.5-.13c-2.31.6-4.69.98-7.17,1.14-2.47.17-4.98.26-7.53.26-3.3,0-6.73-.19-10.32-.57-3.58-.38-7.07-1.04-10.44-1.97,3.71-1.44,6.86-3.17,9.45-5.21,2.59-2.03,4.73-4.17,6.42-6.41,1.69-2.24,2.99-4.44,3.89-6.6.91-2.16,1.59-4.11,2.04-5.84.45-1.74.72-3.11.8-4.13.08-1.02.12-1.48.12-1.4.08-.68.12-1.31.12-1.91v-1.78c0-5.16-.85-9.63-2.53-13.4-1.69-3.76-4.26-7.13-7.72-10.09,4.03-2.62,7.14-6.18,9.33-10.67,2.18-4.49,3.27-9.48,3.27-14.98,0-4.49-.78-8.59-2.35-12.32-1.56-3.72-3.72-6.9-6.49-9.52-2.76-2.62-6.01-4.65-9.76-6.1-3.75-1.44-7.8-2.16-12.17-2.16-3.87,0-7.8.55-11.8,1.65-3.99,1.1-7.87,2.75-11.61,4.95-3.75,2.2-7.27,4.97-10.56,8.32-3.3,3.34-6.22,7.26-8.77,11.74-1.24,2.2-2.28,4.23-3.15,6.1-.87,1.86-1.57,3.51-2.1,4.95-.54,1.44-.95,2.61-1.24,3.49-.29.89-.43,1.38-.43,1.46-1.07,4.4-1.61,8.85-1.61,13.33,0,6.18,1.05,12.02,3.15,17.53,2.1,5.5,5.21,10.66,9.33,15.49-.42,1.27-.75,2.37-.99,3.3-.25.94-.47,1.84-.68,2.73-.2.89-.35,1.78-.43,2.67-.08.89-.13,1.93-.13,3.11,0,1.44.32,2.86.96,4.25.64,1.4,1.97,2.1,3.98,2.1.41,0,.76-.05,1.05-.13.29-.09.43-.34.43-.76,0-.34-.17-.7-.5-1.08-.33-.38-.68-.93-1.05-1.65-.37-.72-.72-1.67-1.05-2.86-.33-1.18-.49-2.79-.49-4.82,0-.76.03-1.57.1-2.41.06-.84.2-1.73.4-2.67,4.37,4.83,9.53,9.04,15.5,12.63,5.97,3.6,12.46,6.5,19.45,8.7-2.96,1.01-6.07,1.75-9.32,2.22-3.26.47-6.86.7-10.81.7-.99,0-1.96-.06-2.9-.19-.95-.13-1.96-.19-3.02-.19-.25,0-1.34-.15-3.28-.44-1.93-.3-4.32-.89-7.16-1.78-2.84-.89-5.97-2.16-9.39-3.81-3.42-1.65-6.75-3.85-10-6.6-3.26-2.75-6.26-6.16-9.02-10.22-2.76-4.06-4.88-8.89-6.37-14.47-.33-1.35-.49-2.75-.49-4.19,0-2.37.17-4.26.49-5.65.33-1.4.7-2.46,1.12-3.17.41-.72.78-1.23,1.11-1.52.33-.29.49-.61.49-.96s-.14-.57-.43-.7c-.29-.13-.64-.19-1.05-.19-1.97,0-3.27.68-3.89,2.03-.62,1.36-.93,2.62-.93,3.81,0,4.91.74,9.57,2.22,13.97,1.48,4.4,3.46,8.44,5.93,12.12,2.47,3.68,5.31,6.94,8.52,9.78,3.21,2.83,6.51,5.18,9.88,7.04,2.8,1.53,5.5,2.75,8.09,3.68,2.59.93,4.9,1.61,6.92,2.03,2.02.42,3.66.7,4.94.83,1.27.12,2,.19,2.16.19,3.04.25,6.05.38,9.01.38,4.28,0,8.21-.3,11.8-.89,3.58-.59,7.02-1.36,10.32-2.29,3.95.93,7.94,1.7,11.98,2.29,4.03.59,8.03.89,11.98.89,4.86,0,9.39-.38,13.59-1.15,4.2-.76,8.03-1.99,11.49-3.68,1.23-.51,2.26-1.21,3.09-2.1.82-.89,1.24-1.88,1.24-2.98,0-.34-.09-.85-.25-1.52l-.5-1.02ZM78.12,119.59c-7.4-2.2-14.34-5.21-20.83-9.02-6.5-3.81-11.88-8.2-16.16-13.2,2.14-6.52,4.77-12.65,7.89-18.41,3.13-5.76,6.45-11.03,9.99-15.81,3.53-4.78,7.07-9.05,10.6-12.82,3.54-3.76,6.76-6.98,9.68-9.65,2.92-2.67,5.34-4.76,7.28-6.28,1.93-1.52,3.06-2.41,3.39-2.67.65-.42,1.25-.89,1.79-1.39.53-.51.8-.97.8-1.4,0-1.44-.25-2.39-.74-2.86-.49-.46-.95-.7-1.36-.7-.91.08-1.94.44-3.08,1.08-1.15.63-2.69,1.67-4.62,3.11-1.93,1.44-4.3,3.51-7.09,6.22-3.53,3.39-7.03,7.35-10.48,11.87-3.45,4.53-6.76,9.41-9.93,14.66-3.17,5.25-6.09,10.69-8.76,16.32-2.67,5.63-4.99,11.24-6.97,16.82-3.99-4.99-6.68-9.88-8.05-14.67-1.37-4.78-2.06-9.46-2.06-14.03,0-3.22.23-6.16.68-8.82.45-2.67.97-5.02,1.54-7.05.66-2.29,1.44-4.45,2.34-6.48,2.39-5.33,5.07-9.88,8.03-13.65,2.97-3.76,5.95-6.92,8.96-9.46,3-2.54,5.97-4.53,8.89-5.97,2.92-1.44,5.6-2.54,8.03-3.3,2.43-.76,4.49-1.25,6.18-1.46,1.69-.21,2.86-.32,3.52-.32,4.29,0,8.15.68,11.61,2.03.33.17,1.34.7,3.03,1.59,1.69.89,3.46,2.26,5.31,4.13,1.85,1.86,3.52,4.21,5.01,7.04,1.48,2.84,2.22,6.29,2.22,10.35,0,2.96-.39,5.84-1.18,8.63-.78,2.79-1.77,5.38-2.96,7.75-1.2,2.37-2.52,4.47-3.96,6.29-1.44,1.82-2.78,3.23-4.01,4.25-2.15-1.27-4.55-2.24-7.23-2.92-2.68-.68-5.33-1.02-7.97-1.02-3.38,0-6.01.51-7.91,1.53-1.89,1.02-2.84,2.37-2.84,4.06,0,3.72,4.07,5.59,12.23,5.59h2.1c.33,0,.62-.04.87-.13.08,0,.45-.05,1.11-.13.66-.08,1.52-.27,2.6-.57,1.07-.3,2.31-.7,3.71-1.21,1.4-.51,2.84-1.18,4.32-2.03.74.76,1.58,1.71,2.53,2.86.95,1.14,1.81,2.56,2.6,4.25.78,1.7,1.46,3.67,2.03,5.9.58,2.24.87,4.76.87,7.55,0,3.3-.48,6.6-1.42,9.9-.95,3.3-2.39,6.44-4.32,9.4-1.93,2.96-4.37,5.67-7.33,8.13-2.96,2.46-6.45,4.49-10.48,6.1ZM91.18,63.47c-2.3,1.61-4.51,2.69-6.61,3.24-2.1.55-3.85.91-5.25,1.08-.99,0-2.12-.04-3.4-.13-1.27-.08-2.47-.25-3.58-.51-1.11-.25-2.06-.63-2.84-1.14-.78-.51-1.17-1.14-1.17-1.9,0-.93.74-1.82,2.23-2.67,1.48-.84,3.86-1.27,7.16-1.27,2.22,0,4.52.28,6.92.83,2.38.55,4.57,1.38,6.55,2.48Z" style="fill: #dcb927; stroke-width: 0px;"/>
  <path d="M189.25,101.31c.91-1.1,1.77-2.3,2.59-3.62.82-1.31,1.44-2.3,1.85-2.98.91-1.69,1.83-3.55,2.78-5.59.95-2.03,1.92-4.27,2.9-6.73.25-.42.08-.8-.49-1.14-.49-.17-.87,0-1.11.51-.99,2.46-2,4.76-3.03,6.92-1.03,2.15-2,4.12-2.91,5.9-.41.59-.78,1.19-1.11,1.78-.42.51-.82,1.08-1.23,1.72-.42.63-.87,1.25-1.36,1.84-.74.76-1.6,1.52-2.59,2.29-3.63,2.96-7.54,4.11-11.74,3.43-2.06-.51-3.44-1.65-4.14-3.43-.7-1.78-1.01-3.66-.92-5.65.08-1.99.35-3.89.8-5.72.46-1.82.81-3.06,1.05-3.74.74-.25,1.63-.57,2.66-.95,1.03-.38,2.12-.82,3.27-1.33,5.93-2.79,10.09-6.05,12.47-9.77,2.31-3.64,3.21-6.77,2.72-9.4-.33-1.18-.76-2.03-1.29-2.54-.54-.51-.85-.8-.93-.89-1.07-.59-2.23-.89-3.46-.89-.67,0-1.36.13-2.1.38-2.64.94-5.42,3.05-8.34,6.35-2.92,3.3-5.37,7.15-7.35,11.55-.07.13-.29.7-.68,1.68-.16.09-.27.25-.31.49-3.54,8.46-6.75,14.6-9.63,18.41-1.32,1.69-2.41,2.88-3.27,3.55-.87.68-1.59,1.1-2.16,1.27-.17,0-.29.02-.37.07-.08.04-.21.02-.37-.07-.74-.17-1.15-.87-1.23-2.09-.08-1.22.1-2.77.56-4.63.45-1.86,1.09-3.96,1.91-6.29.82-2.33,1.73-4.67,2.72-7.04,2.31-5.59,5.19-11.89,8.65-18.92.49-.93.76-1.86.8-2.79.04-.86-.4-1.39-1.3-1.6,2.24-.14,4.58-.57,7.09-1.31,2.97-.88,5.74-2.02,8.25-3.37,2.25-1.22,4.42-2.48,6.24-3.56,1.04-.62,2.06-1.31,3.04-1.97l.26-.18c.75-.5,1.49-1.03,2.21-1.54.32-.23.64-.45.95-.67l1.47-1.03-1.78.21c-.74.09-1.47.21-2.17.34-.43.07-.85.15-1.27.21-3.49.53-7.21.58-11.36.17-3.5-.34-6.97-.99-10.22-1.63-2.33-.46-4.97-.98-7.65-.92-2.96.07-5.62.91-7.91,2.5-1.37.95-2.61,2.08-3.68,3.34-.05.06-.08.08-.08.09,0,0-.03,0-.06-.02-.39-.17-.78-.33-1.17-.49-.68-.28-1.38-.56-2.03-.9-2.55-1.34-4.31-3.03-5.38-5.15-.09-.17-.24-.39-.5-.43-.23-.04-.46-.07-.69-.1,3.32-2.86,6.74-6.15,10.27-9.91,2.72-2.88,5.29-5.84,7.72-8.89,2.43-3.05,4.59-5.92,6.49-8.63.74-1.01,1.46-2.11,2.16-3.3.7-1.18,1.36-2.37,1.97-3.55.62-1.18,1.13-2.35,1.54-3.49.41-1.14.66-2.18.74-3.11.17-1.36-.06-2.27-.68-2.73-.62-.47-1.18-.78-1.67-.96-3.05-.67-6.79,1.61-11.24,6.86-1.81,1.95-3.72,4.34-5.74,7.18-2.02,2.84-4.18,6.07-6.49,9.71-1.89,3.05-3.69,6.05-5.37,9.01-1.69,2.96-3.17,5.63-4.45,8-1.28,2.37-2.29,4.32-3.03,5.84-.74,1.52-1.15,2.33-1.23,2.41-.08,0-.13.04-.13.13,0,.09-.02.17-.06.26-.04.09-.06.17-.06.25-.82.51-1.63,1-2.41,1.46-.78.46-1.55.91-2.29,1.33-1.32.68-2.59,1.06-3.83,1.14-1.23.09-2.39.02-3.46-.19-1.07-.21-2.02-.49-2.84-.83-.82-.34-1.52-.59-2.1-.76-.66-.17-1.07-.15-1.24.06-.16.21-.25.53-.25.95s.12.98.37,1.65c.74,1.86,1.82,2.88,3.21,3.05,1.4.17,2.68.04,3.83-.38.57-.17,1.15-.36,1.73-.57.57-.21.99-.36,1.24-.44,1.81-.68,3.91-1.78,6.3-3.3-.74,1.52-1.67,3.43-2.78,5.71-1.11,2.29-2.31,4.85-3.58,7.68-1.28,2.83-2.57,5.88-3.89,9.14-1.32,3.26-2.6,6.62-3.83,10.09-.49,1.27-.95,2.62-1.36,4.06-.41,1.19-.78,2.5-1.11,3.94-.33,1.44-.57,2.88-.74,4.31-.25,1.7-.25,3.07,0,4.13.25,1.06.6,1.89,1.05,2.47.46.6.95,1.02,1.48,1.27s1.01.43,1.42.51h1.48c2.3-.51,4.84-2.81,7.6-6.92,1.12-1.66,2.27-3.62,3.45-5.84-.29,1.57-.47,3.16-.54,4.76-.08,1.95.25,3.6.99,4.95.82,1.69,2.26,2.75,4.32,3.17.17.08.5.13.99.13,3.71,0,8.28-3.76,13.71-11.3,1.4-1.86,2.8-3.93,4.2-6.22-1.16,3.3-1.85,6.27-2.1,8.89-.16,1.7-.12,3.07.12,4.13.25,1.06.58,1.88.99,2.47.41.6.89,1.02,1.42,1.27.54.25,1.01.43,1.42.51h1.61c2.3-.51,4.84-2.81,7.59-6.92,1.48-2.2,3.01-4.89,4.59-8.08-.14,1-.26,2.02-.33,3.06-.16,2.46.2,4.7,1.11,6.73,1.23,2.79,3.37,4.57,6.42,5.33.66.25,1.36.42,2.1.51.74.08,1.48.13,2.23.13,3.87,0,7.37-1.31,10.5-3.94.99-.76,1.86-1.53,2.6-2.29ZM174.92,77.44c1.4-2.45,2.84-4.68,4.33-6.67,1.48-1.99,2.98-3.58,4.51-4.76,1.52-1.19,2.94-1.73,4.26-1.65.82,0,1.4.3,1.73.89.16.34.25.59.25.76.5,2.12-.33,4.78-2.47,8-.91,1.44-2.06,2.73-3.46,3.87-1.4,1.14-2.84,2.18-4.32,3.11-1.48.93-2.96,1.71-4.45,2.35-1.48.64-2.8,1.16-3.96,1.59.99-2.54,2.18-5.03,3.58-7.49ZM165.41,48.84l.6.11c.77.14,1.53.28,2.3.43,2.19.41,4.46.84,6.7,1.16,3.92.55,7.95.4,11.99-.42-.1.07-.21.14-.31.21-1.31.87-2.66,1.77-4.01,2.6-3.91,2.39-7.59,4.14-11.25,5.36-3.88,1.29-7.18,1.82-10.39,1.66-4.29-.2-7.77-1.57-10.63-4.16-.38-.34-.76-.72-1.14-1.16,5.87,1.35,11.67,1.1,17.59.68l-.04-.9c-5.78.16-11.96.07-18.11-1.56.15-.17.29-.33.44-.48,1.16-1.13,2.1-1.9,3.08-2.49,1.91-1.17,4.01-1.76,6.42-1.81,2.27-.05,4.55.37,6.75.78ZM146.58,26.33c3-4.78,5.68-8.78,8.03-12,2.34-3.22,4.28-5.67,5.8-7.36,1.53-1.69,2.62-2.75,3.27-3.17.75-.59,1.36-.72,1.85-.38.41.17.64.44.68.83.04.38.02.65-.06.82-.25,1.44-.95,3.22-2.1,5.33-1.16,2.12-2.61,4.47-4.39,7.05-1.77,2.58-3.81,5.29-6.11,8.13-2.3,2.84-4.78,5.65-7.41,8.44-1.65,1.69-3.23,3.3-4.76,4.82-1.52,1.52-3.06,2.96-4.63,4.32,3.54-6.43,6.81-12.04,9.82-16.82ZM143.43,94.58c-2.64,3.73-5.09,6.49-7.35,8.31-2.27,1.82-4.18,2.56-5.75,2.22h-.25c-.74-.17-1.23-.63-1.48-1.4-.25-.76-.33-1.74-.25-2.92.09-1.19.29-2.47.62-3.87.33-1.4.7-2.81,1.11-4.25.99-3.38,2.39-7.15,4.2-11.3.91-2.12,1.81-4.15,2.72-6.1.9-1.95,1.69-3.64,2.35-5.08.82-1.69,1.6-3.3,2.35-4.82.49-.93.76-1.86.8-2.79.04-.93-.47-1.48-1.55-1.65-.74-.08-1.48.3-2.22,1.14-.33.43-.66.93-.99,1.52-1.07,2.03-2.14,4.15-3.22,6.35-.9,1.95-1.91,4.13-3.02,6.54-.73,1.59-1.43,3.22-2.11,4.87-.11.09-.21.22-.3.4-3.38,8.3-6.55,14.43-9.51,18.41-1.32,1.69-2.43,2.88-3.34,3.55-.91.68-1.65,1.1-2.22,1.27-.16,0-.29.02-.37.07-.08.04-.21.02-.37-.07-.99-.17-1.42-1.08-1.3-2.73.12-1.65.51-3.62,1.17-5.9.58-1.86,1.28-3.93,2.1-6.22.82-2.29,1.64-4.44,2.47-6.48.9-2.37,1.89-4.74,2.96-7.11,1.24-2.96,2.51-5.92,3.83-8.89,1.32-2.96,2.59-5.76,3.83-8.38,1.07-2.12,2.12-4.15,3.15-6.09,1.03-1.95,2.04-3.89,3.03-5.84.48-.39.96-.78,1.45-1.19l.06.08c.21.25.42.49.63.74,2.95,3.32,6.23,5.58,10.03,6.9.03,0,.1.07.15.11.05.04.11.09.17.13l.22.16.24-.12s.05-.02.05-.02c.02.01.07.06.15.21.65,1.21,1.53,2.3,2.7,3.35,2.41,2.16,5.38,3.42,9.09,3.84.85.1,1.71.14,2.59.14.15,0,.29,0,.44,0-.47.16-.95.51-1.42,1.05-.33.42-.66.94-.99,1.53-.58,1.1-1.19,2.33-1.85,3.68-.58,1.19-1.24,2.54-1.98,4.06s-1.52,3.13-2.34,4.83c-1.16,2.46-2.66,5.31-4.51,8.57-1.85,3.26-3.85,6.33-5.99,9.21Z" style="fill: #dcb927; stroke-width: 0px;"/>
  <path d="M143.75,118.02c-.12,0-.5.04-.5.59v1.93h-3.16v-6.02h1.07c.55,0,.59-.38.59-.5s-.04-.5-.59-.5h-3.14c-.55,0-.59.38-.59.5s.04.5.59.5h1.07v6.02h-1.07c-.55,0-.59.38-.59.5s.04.5.59.5h6.22v-2.93c0-.55-.38-.59-.49-.59Z" style="fill: #dcb927; stroke-width: 0px;"/>
  <path d="M151.42,118.57c-.12,0-.5.04-.5.59v1.38h-3.72v-2.66h1.5v.39c0,.55.38.59.5.59s.49-.04.49-.59v-1.77c0-.55-.38-.59-.49-.59s-.5.04-.5.59v.39h-1.5v-2.37h3.44v1.1c0,.55.38.59.5.59s.5-.04.5-.59v-2.09h-5.93c-.55,0-.59.38-.59.5s.04.5.59.5h.5v6.02h-.5c-.55,0-.59.38-.59.5s.04.5.59.5h6.21v-2.37c0-.55-.38-.59-.5-.59Z" style="fill: #dcb927; stroke-width: 0px;"/>
  <path d="M160.2,120.54h-.26l-2.65-7.01h-2.89c-.54,0-.59.38-.59.5s.04.5.59.5h1.28l-2.23,6.02h-.26c-.55,0-.59.38-.59.5s.04.5.59.5h2.02c.54,0,.59-.38.59-.5s-.04-.5-.59-.5h-.72l.57-1.53h3.25l.58,1.53h-.71c-.55,0-.59.38-.59.5s.04.5.59.5h2.02c.54,0,.59-.38.59-.5s-.04-.5-.59-.5ZM156.67,114.67l1.27,3.34h-2.5l1.23-3.34Z" style="fill: #dcb927; stroke-width: 0px;"/>
  <path d="M161.46,114.02c0,.12.04.5.59.5h.5v6.02h-.5c-.55,0-.59.38-.59.5s.04.5.59.5h3.13c.55,0,.59-.38.59-.5s-.04-.5-.59-.5h-1.63v-2.66h1.49v.39c0,.55.38.59.5.59s.49-.04.49-.59v-1.77c0-.55-.38-.59-.49-.59s-.5.04-.5.59v.39h-1.49v-2.37h3.71v1.1c0,.55.38.59.5.59s.49-.04.49-.59v-2.09h-6.2c-.55,0-.59.38-.59.5Z" style="fill: #dcb927; stroke-width: 0px;"/>
  <path d="M184.02,120.54h-.26l-2.65-7.01h-2.89c-.54,0-.59.38-.59.5s.04.5.59.5h1.28l-2.23,6.02h-.26c-.55,0-.59.38-.59.5s.04.5.59.5h2.02c.54,0,.59-.38.59-.5s-.04-.5-.59-.5h-.72l.57-1.53h3.25l.58,1.53h-.71c-.55,0-.59.38-.59.5s.04.5.59.5h2.02c.54,0,.59-.38.59-.5s-.04-.5-.59-.5ZM180.49,114.67l1.27,3.34h-2.5l1.23-3.34Z" style="fill: #dcb927; stroke-width: 0px;"/>
  <path d="M188.77,113.52h-2.92c-.55,0-.59.38-.59.5s.04.5.59.5h.23v6.02h-.23c-.55,0-.59.38-.59.5s.04.5.59.5h2.92c.61,0,1.15-.16,1.6-.47,1.12-.76,1.7-1.82,1.7-3.16v-.75c0-.92-.34-1.81-1.01-2.62-.55-.67-1.32-1.01-2.29-1.01ZM191.08,117.03v.98c0,.37-.09.75-.28,1.13-.19.39-.46.72-.82.98-.37.27-.76.41-1.16.41h-1.74v-6.02h1.74c.63,0,1.11.22,1.49.67.27.32.48.67.62,1.03.1.23.14.51.14.81Z" style="fill: #dcb927; stroke-width: 0px;"/>
  <path d="M198.11,117.31c-.3-.13-.81-.26-1.58-.38-.69-.12-1.17-.26-1.44-.44-.3-.2-.44-.47-.44-.82,0-.41.17-.73.53-.98.33-.23.73-.34,1.2-.34.42,0,.8.11,1.14.31.36.23.55.52.57.88.03.5.39.54.5.54.12,0,.5-.04.5-.59v-1.38c0-.55-.38-.59-.5-.59-.1,0-.37.03-.46.34-.51-.34-1.11-.51-1.77-.51-.71,0-1.33.19-1.83.58-.58.44-.87,1.02-.87,1.73s.31,1.3.93,1.67c.4.25.99.43,1.8.57.78.13,1.1.23,1.24.29.51.22.76.58.76,1.08,0,.47-.2.84-.62,1.12-.37.25-.83.37-1.36.37-.5,0-.95-.12-1.34-.34-.45-.25-.67-.58-.69-1.01-.03-.5-.39-.54-.5-.54-.12,0-.5.04-.5.59v1.5c0,.55.38.59.5.59.1,0,.41-.03.48-.41.55.41,1.24.62,2.05.62s1.46-.2,2.01-.6c.64-.46.96-1.09.96-1.87,0-.92-.43-1.58-1.27-1.96Z" style="fill: #dcb927; stroke-width: 0px;"/>
</svg>